<svg width="171" height="29" viewBox="0 0 171 29" fill="none" xmlns="http://www.w3.org/2000/svg">
<path d="M146.737 28.5L149.175 17.9625L141 10.875L151.8 9.9375L156 0L160.2 9.9375L171 10.875L162.825 17.9625L165.262 28.5L156 22.9125L146.737 28.5Z" fill="#D00000"/>
<path d="M112.237 28.5L114.675 17.9625L106.5 10.875L117.3 9.9375L121.5 0L125.7 9.9375L136.5 10.875L128.325 17.9625L130.762 28.5L121.5 22.9125L112.237 28.5Z" fill="#D00000"/>
<path d="M77.7375 28.5L80.175 17.9625L72 10.875L82.8 9.9375L87 0L91.2 9.9375L102 10.875L93.825 17.9625L96.2625 28.5L87 22.9125L77.7375 28.5Z" fill="#D00000"/>
<path d="M43.2375 28.5L45.675 17.9625L37.5 10.875L48.3 9.9375L52.5 0L56.7 9.9375L67.5 10.875L59.325 17.9625L61.7625 28.5L52.5 22.9125L43.2375 28.5Z" fill="#D00000"/>
<path d="M5.7375 28.5L8.175 17.9625L0 10.875L10.8 9.9375L15 0L19.2 9.9375L30 10.875L21.825 17.9625L24.2625 28.5L15 22.9125L5.7375 28.5Z" fill="#D00000"/>
</svg>
